<mxfile host="app.diagrams.net" modified="2023-03-17T17:12:05.965Z" agent="5.0 (Windows NT 10.0; Win64; x64) AppleWebKit/537.36 (KHTML, like Gecko) Chrome/111.0.0.0 Safari/537.36" etag="mUyKd4lSosPCv9xWVJNA" version="21.0.6" type="github">
  <diagram name="PÃ¡gina-1" id="DvymiIzs58IeSSqih6xI">
    <mxGraphModel dx="1434" dy="3094" grid="1" gridSize="10" guides="1" tooltips="1" connect="1" arrows="1" fold="1" page="1" pageScale="1" pageWidth="827" pageHeight="1169" math="0" shadow="0">
      <root>
        <mxCell id="0" />
        <mxCell id="1" parent="0" />
        <mxCell id="JkhiwdGmOalR56ONUdoc-1" value="start&lt;br&gt;" style="ellipse;whiteSpace=wrap;html=1;" vertex="1" parent="1">
          <mxGeometry x="380" y="-1920" width="120" height="80" as="geometry" />
        </mxCell>
        <mxCell id="JkhiwdGmOalR56ONUdoc-3" value="" style="verticalLabelPosition=bottom;verticalAlign=top;html=1;strokeWidth=2;shape=mxgraph.arrows2.arrow;dy=0.6;dx=40;notch=0;rotation=90;" vertex="1" parent="1">
          <mxGeometry x="390" y="-1820" width="100" height="70" as="geometry" />
        </mxCell>
        <mxCell id="JkhiwdGmOalR56ONUdoc-4" value="a , b&amp;nbsp;" style="shape=parallelogram;html=1;strokeWidth=2;perimeter=parallelogramPerimeter;whiteSpace=wrap;rounded=1;arcSize=12;size=0.23;" vertex="1" parent="1">
          <mxGeometry x="390" y="-1730" width="100" height="60" as="geometry" />
        </mxCell>
        <mxCell id="JkhiwdGmOalR56ONUdoc-6" value="" style="verticalLabelPosition=bottom;verticalAlign=top;html=1;strokeWidth=2;shape=mxgraph.arrows2.arrow;dy=0.6;dx=40;notch=0;rotation=90;" vertex="1" parent="1">
          <mxGeometry x="380" y="-1640" width="100" height="70" as="geometry" />
        </mxCell>
        <mxCell id="JkhiwdGmOalR56ONUdoc-12" value="suma = a+b" style="strokeWidth=2;html=1;shape=mxgraph.flowchart.display;whiteSpace=wrap;" vertex="1" parent="1">
          <mxGeometry x="344" y="-1550" width="156" height="90" as="geometry" />
        </mxCell>
        <mxCell id="JkhiwdGmOalR56ONUdoc-13" value="" style="verticalLabelPosition=bottom;verticalAlign=top;html=1;strokeWidth=2;shape=mxgraph.arrows2.arrow;dy=0.6;dx=40;notch=0;rotation=90;" vertex="1" parent="1">
          <mxGeometry x="380" y="-1420" width="100" height="70" as="geometry" />
        </mxCell>
        <mxCell id="JkhiwdGmOalR56ONUdoc-14" value="suma" style="shape=document;whiteSpace=wrap;html=1;boundedLbl=1;" vertex="1" parent="1">
          <mxGeometry x="362" y="-1330" width="120" height="80" as="geometry" />
        </mxCell>
        <mxCell id="JkhiwdGmOalR56ONUdoc-15" value="" style="verticalLabelPosition=bottom;verticalAlign=top;html=1;strokeWidth=2;shape=mxgraph.arrows2.arrow;dy=0.6;dx=40;notch=0;rotation=90;" vertex="1" parent="1">
          <mxGeometry x="380" y="-1220" width="100" height="70" as="geometry" />
        </mxCell>
        <mxCell id="JkhiwdGmOalR56ONUdoc-16" value="end" style="strokeWidth=2;html=1;shape=mxgraph.flowchart.start_1;whiteSpace=wrap;" vertex="1" parent="1">
          <mxGeometry x="380" y="-1120" width="100" height="60" as="geometry" />
        </mxCell>
      </root>
    </mxGraphModel>
  </diagram>
</mxfile>
